<svg id="svg" version="1.1" xmlns="http://www.w3.org/2000/svg" xmlns:xlink="http://www.w3.org/1999/xlink" width="400" height="400" viewBox="0, 0, 400,400"><g id="svgg"><path id="path0" d="M62.800 43.400 L 62.800 62.000 81.200 62.000 L 99.600 62.000 99.600 43.400 L 99.600 24.800 81.200 24.800 L 62.800 24.800 62.800 43.400 M138.000 43.400 L 138.000 62.000 156.400 62.000 L 174.800 62.000 174.800 43.400 L 174.800 24.800 156.400 24.800 L 138.000 24.800 138.000 43.400 M212.800 43.400 L 212.800 62.000 231.600 62.000 L 250.400 62.000 250.400 43.400 L 250.400 24.800 231.600 24.800 L 212.800 24.800 212.800 43.400 M100.400 81.200 L 100.400 99.600 118.800 99.600 L 137.200 99.600 137.200 81.200 L 137.200 62.800 118.800 62.800 L 100.400 62.800 100.400 81.200 M175.200 81.200 L 175.200 99.600 193.600 99.600 L 212.000 99.600 212.000 81.200 L 212.000 62.800 193.600 62.800 L 175.200 62.800 175.200 81.200 M62.800 118.800 L 62.800 137.200 81.200 137.200 L 99.600 137.200 99.600 118.800 L 99.600 100.400 81.200 100.400 L 62.800 100.400 62.800 118.800 M138.000 118.800 L 138.000 137.200 156.400 137.200 L 174.800 137.200 174.800 118.800 L 174.800 100.400 156.400 100.400 L 138.000 100.400 138.000 118.800 M212.800 118.800 L 212.800 137.200 231.200 137.200 L 249.600 137.200 249.600 118.800 L 249.600 100.400 231.200 100.400 L 212.800 100.400 212.800 118.800 M100.400 156.400 L 100.400 174.800 118.800 174.800 L 137.200 174.800 137.200 156.400 L 137.200 138.000 118.800 138.000 L 100.400 138.000 100.400 156.400 M175.200 156.400 L 175.200 174.800 193.600 174.800 L 212.000 174.800 212.000 156.400 L 212.000 138.000 193.600 138.000 L 175.200 138.000 175.200 156.400 M62.800 193.600 L 62.800 212.000 81.200 212.000 L 99.600 212.000 99.600 193.600 L 99.600 175.200 81.200 175.200 L 62.800 175.200 62.800 193.600 M138.000 193.600 L 138.000 212.000 156.400 212.000 L 174.800 212.000 174.800 193.600 L 174.800 175.200 156.400 175.200 L 138.000 175.200 138.000 193.600 M212.800 193.600 L 212.800 212.000 231.200 212.000 L 249.600 212.000 249.600 193.600 L 249.600 175.200 231.200 175.200 L 212.800 175.200 212.800 193.600 M100.400 231.600 L 100.400 250.400 118.800 250.400 L 137.200 250.400 137.200 231.600 L 137.200 212.800 118.800 212.800 L 100.400 212.800 100.400 231.600 M175.200 231.600 L 175.200 250.400 193.600 250.400 L 212.000 250.400 212.000 231.600 L 212.000 212.800 193.600 212.800 L 175.200 212.800 175.200 231.600 M212.662 288.500 C 212.764 288.665,246.486 288.800,287.600 288.800 C 328.714 288.800,362.436 288.665,362.538 288.500 C 362.640 288.335,328.918 288.200,287.600 288.200 C 246.282 288.200,212.560 288.335,212.662 288.500 " stroke="none" fill="#ececec" fill-rule="evenodd"></path><path id="path1" d="M99.696 43.296 L 99.600 61.992 81.100 62.100 L 62.600 62.208 81.113 62.304 C 95.625 62.379,99.667 62.292,99.817 61.900 C 99.922 61.625,99.960 53.120,99.900 43.000 L 99.792 24.600 99.696 43.296 M137.696 43.500 L 137.600 62.400 156.300 62.304 L 175.000 62.208 156.504 62.100 L 138.008 61.992 137.900 43.296 L 137.792 24.600 137.696 43.500 M231.500 62.300 L 250.400 62.408 250.400 81.004 L 250.400 99.600 268.800 99.600 L 287.200 99.600 287.200 80.800 L 287.200 62.000 249.900 62.096 C 229.385 62.149,221.105 62.241,231.500 62.300 M325.200 80.796 L 325.200 99.600 344.004 99.600 L 362.808 99.600 362.704 80.900 L 362.600 62.200 343.900 62.096 L 325.200 61.992 325.200 80.796 M100.194 81.300 L 100.200 99.800 118.600 99.806 L 137.000 99.812 118.704 99.702 L 100.408 99.592 100.298 81.196 L 100.188 62.800 100.194 81.300 M212.096 81.096 L 212.000 99.592 193.500 99.700 L 175.000 99.808 193.513 99.904 C 208.025 99.979,212.067 99.892,212.217 99.500 C 212.322 99.225,212.360 90.810,212.300 80.800 L 212.192 62.600 212.096 81.096 M81.196 100.298 L 99.592 100.408 99.702 118.704 L 99.812 137.000 99.806 118.600 L 99.800 100.200 81.300 100.194 L 62.800 100.188 81.196 100.298 M137.783 100.500 C 137.678 100.775,137.640 109.190,137.700 119.200 L 137.808 137.400 137.904 118.904 L 138.000 100.408 156.500 100.300 L 175.000 100.192 156.487 100.096 C 141.975 100.021,137.933 100.108,137.783 100.500 M231.196 100.298 L 249.592 100.408 249.702 118.704 L 249.812 137.000 249.806 118.600 L 249.800 100.200 231.300 100.194 L 212.800 100.188 231.196 100.298 M288.000 118.800 L 288.000 137.200 306.400 137.200 L 324.800 137.200 324.800 118.800 L 324.800 100.400 306.400 100.400 L 288.000 100.400 288.000 118.800 M100.183 138.100 C 100.078 138.375,100.040 146.790,100.100 156.800 L 100.208 175.000 100.304 156.504 L 100.400 138.008 118.900 137.900 L 137.400 137.792 118.887 137.696 C 104.375 137.621,100.333 137.708,100.183 138.100 M193.496 137.900 L 211.992 138.008 212.100 156.504 L 212.208 175.000 212.304 156.300 L 212.400 137.600 193.700 137.696 L 175.000 137.792 193.496 137.900 M250.400 156.400 L 250.400 174.800 268.800 174.800 L 287.200 174.800 287.200 156.400 L 287.200 138.000 268.800 138.000 L 250.400 138.000 250.400 156.400 M325.200 156.400 L 325.200 174.800 344.000 174.800 L 362.800 174.800 362.800 156.400 L 362.800 138.000 344.000 138.000 L 325.200 138.000 325.200 156.400 M99.696 193.496 L 99.600 211.992 81.100 212.100 L 62.600 212.208 81.113 212.304 C 95.625 212.379,99.667 212.292,99.817 211.900 C 99.922 211.625,99.960 203.210,99.900 193.200 L 99.792 175.000 99.696 193.496 M137.696 193.700 L 137.600 212.400 156.300 212.304 L 175.000 212.208 156.504 212.100 L 138.008 211.992 137.900 193.496 L 137.792 175.000 137.696 193.700 M249.696 193.496 L 249.600 211.992 231.100 212.100 L 212.600 212.208 231.113 212.304 C 245.625 212.379,249.667 212.292,249.817 211.900 C 249.922 211.625,249.960 203.210,249.900 193.200 L 249.792 175.000 249.696 193.496 M288.000 193.600 L 288.000 212.000 306.400 212.000 L 324.800 212.000 324.800 193.600 L 324.800 175.200 306.400 175.200 L 288.000 175.200 288.000 193.600 M100.185 231.600 C 100.185 242.050,100.236 246.325,100.300 241.100 C 100.363 235.875,100.363 227.325,100.300 222.100 C 100.236 216.875,100.185 221.150,100.185 231.600 M212.185 231.600 C 212.185 242.050,212.236 246.325,212.300 241.100 C 212.363 235.875,212.363 227.325,212.300 222.100 C 212.236 216.875,212.185 221.150,212.185 231.600 M250.400 231.200 L 250.400 249.600 268.800 249.600 L 287.200 249.600 287.200 231.200 L 287.200 212.800 268.800 212.800 L 250.400 212.800 250.400 231.200 M325.200 231.200 L 325.200 249.600 344.000 249.600 L 362.800 249.600 362.800 231.200 L 362.800 212.800 344.000 212.800 L 325.200 212.800 325.200 231.200 M287.904 269.100 L 287.800 287.800 268.700 287.904 L 249.600 288.008 249.600 269.384 L 249.600 250.760 231.500 269.014 C 221.545 279.054,213.256 287.523,213.080 287.834 C 212.805 288.321,223.175 288.387,287.480 288.304 C 328.576 288.251,353.785 288.160,343.500 288.100 L 324.800 287.992 324.800 269.196 L 324.800 250.400 306.404 250.400 L 288.008 250.400 287.904 269.100 " stroke="none" fill="#cccccc" fill-rule="evenodd"></path><path id="path2" d="M288.000 80.800 L 288.000 99.600 306.400 99.600 L 324.800 99.600 324.800 80.800 L 324.800 62.000 306.400 62.000 L 288.000 62.000 288.000 80.800 M250.400 118.800 L 250.400 137.200 268.800 137.200 L 287.200 137.200 287.200 118.800 L 287.200 100.400 268.800 100.400 L 250.400 100.400 250.400 118.800 M325.200 118.800 L 325.200 137.200 344.000 137.200 L 362.800 137.200 362.800 118.800 L 362.800 100.400 344.000 100.400 L 325.200 100.400 325.200 118.800 M288.000 156.400 L 288.000 174.800 306.400 174.800 L 324.800 174.800 324.800 156.400 L 324.800 138.000 306.400 138.000 L 288.000 138.000 288.000 156.400 M250.400 193.600 L 250.400 212.000 268.800 212.000 L 287.200 212.000 287.200 193.600 L 287.200 175.200 268.800 175.200 L 250.400 175.200 250.400 193.600 M325.200 193.600 L 325.200 212.000 344.000 212.000 L 362.800 212.000 362.800 193.600 L 362.800 175.200 344.000 175.200 L 325.200 175.200 325.200 193.600 M288.000 231.200 L 288.000 249.600 306.400 249.600 L 324.800 249.600 324.800 231.200 L 324.800 212.800 306.400 212.800 L 288.000 212.800 288.000 231.200 M250.400 269.000 L 250.400 287.600 268.800 287.600 L 287.200 287.600 287.200 269.000 L 287.200 250.400 268.800 250.400 L 250.400 250.400 250.400 269.000 M325.200 269.000 L 325.200 287.600 344.000 287.600 L 362.800 287.600 362.800 269.000 L 362.800 250.400 344.000 250.400 L 325.200 250.400 325.200 269.000 " stroke="none" fill="#2c444c" fill-rule="evenodd"></path><path id="path3" d="M137.296 43.700 L 137.200 62.800 156.000 62.800 L 174.800 62.800 174.800 118.800 L 174.800 174.800 118.700 174.898 C 73.839 174.976,70.073 175.017,99.900 175.100 L 137.200 175.204 137.200 194.002 L 137.200 212.800 155.996 212.800 L 174.792 212.800 174.900 231.700 C 174.959 242.095,175.051 233.635,175.104 212.900 L 175.200 175.200 250.000 175.200 L 324.800 175.200 324.898 231.700 C 324.977 277.122,325.016 280.809,325.100 250.504 L 325.204 212.808 344.102 212.700 L 363.000 212.592 344.100 212.496 L 325.200 212.400 325.200 193.804 L 325.200 175.208 344.100 175.100 L 363.000 174.992 344.100 174.896 L 325.200 174.800 325.102 118.300 C 325.023 72.870,324.984 69.187,324.900 99.500 L 324.796 137.200 305.998 137.200 L 287.200 137.200 287.200 156.000 L 287.200 174.800 250.000 174.800 L 212.800 174.800 212.800 156.000 L 212.800 137.200 194.000 137.200 L 175.200 137.200 175.104 80.900 C 175.051 49.935,174.959 33.105,174.900 43.500 L 174.792 62.400 156.200 62.400 L 137.608 62.400 137.500 43.500 L 137.392 24.600 137.296 43.700 M287.290 81.100 C 287.240 91.715,287.335 100.400,287.500 100.400 C 287.773 100.400,287.768 86.016,287.489 68.600 C 287.429 64.860,287.339 70.485,287.290 81.100 M72.128 62.700 C 77.368 62.763,85.828 62.763,90.928 62.700 C 96.027 62.636,91.740 62.585,81.400 62.585 C 71.060 62.585,66.887 62.637,72.128 62.700 M212.496 81.300 L 212.592 100.200 212.700 81.504 L 212.808 62.808 231.504 62.700 L 250.200 62.592 231.300 62.496 L 212.400 62.400 212.496 81.300 M137.200 118.596 L 137.200 137.192 118.500 137.300 L 99.800 137.408 118.700 137.504 L 137.600 137.600 137.600 118.800 C 137.600 108.460,137.510 100.000,137.400 100.000 C 137.290 100.000,137.200 108.368,137.200 118.596 M212.400 156.200 L 212.400 174.800 193.800 174.800 L 175.200 174.800 175.200 156.200 L 175.200 137.600 193.800 137.600 L 212.400 137.600 212.400 156.200 M324.800 156.200 L 324.800 174.800 306.200 174.800 L 287.600 174.800 287.600 156.200 L 287.600 137.600 306.200 137.600 L 324.800 137.600 324.800 156.200 M174.800 193.800 L 174.800 212.400 156.200 212.400 L 137.600 212.400 137.600 193.800 L 137.600 175.200 156.200 175.200 L 174.800 175.200 174.800 193.800 M72.128 212.700 C 77.368 212.763,85.828 212.763,90.928 212.700 C 96.027 212.636,91.740 212.585,81.400 212.585 C 71.060 212.585,66.887 212.637,72.128 212.700 M212.207 249.165 C 212.043 269.385,212.043 286.146,212.207 286.411 C 212.401 286.725,218.866 280.532,230.806 268.594 C 240.872 258.530,249.290 250.408,249.512 250.546 C 249.734 250.683,250.002 250.571,250.107 250.298 C 250.258 249.904,246.373 249.823,231.549 249.908 L 212.800 250.015 212.800 231.408 L 212.800 212.800 250.000 212.800 L 287.200 212.800 287.200 231.600 C 287.200 241.940,287.335 250.400,287.500 250.400 C 287.665 250.400,287.752 241.850,287.692 231.400 L 287.585 212.400 250.045 212.400 L 212.505 212.400 212.207 249.165 " stroke="none" fill="#949494" fill-rule="evenodd"></path><path id="path4" d="M37.200 200.000 L 37.200 400.000 50.000 400.000 L 62.800 400.000 62.800 325.200 L 62.800 250.400 81.200 250.400 L 99.600 250.400 99.600 231.600 L 99.600 212.800 81.000 212.800 L 62.400 212.800 62.400 193.800 L 62.400 174.800 81.000 174.800 L 99.600 174.800 99.600 156.200 L 99.600 137.600 80.996 137.600 L 62.392 137.600 62.496 118.700 L 62.600 99.800 81.100 99.696 L 99.600 99.592 99.600 81.196 L 99.600 62.800 80.937 62.800 L 62.273 62.800 62.558 31.400 L 62.843 0.000 50.022 0.000 L 37.200 0.000 37.200 200.000 M100.400 43.600 L 100.400 62.400 118.800 62.400 L 137.200 62.400 137.200 43.600 L 137.200 24.800 118.800 24.800 L 100.400 24.800 100.400 43.600 M175.200 43.600 L 175.200 62.400 193.800 62.400 L 212.400 62.400 212.400 43.600 L 212.400 24.800 193.800 24.800 L 175.200 24.800 175.200 43.600 M287.696 80.900 L 287.600 100.000 306.300 99.904 L 325.000 99.808 306.504 99.700 L 288.008 99.592 287.900 80.696 L 287.792 61.800 287.696 80.900 M137.600 81.200 L 137.600 99.600 156.200 99.600 L 174.800 99.600 174.800 81.200 L 174.800 62.800 156.200 62.800 L 137.600 62.800 137.600 81.200 M212.800 81.200 L 212.800 99.600 231.400 99.600 L 250.000 99.600 250.000 81.200 L 250.000 62.800 231.400 62.800 L 212.800 62.800 212.800 81.200 M250.183 100.500 C 250.078 100.775,250.040 109.190,250.100 119.200 L 250.208 137.400 250.304 118.904 L 250.400 100.408 268.900 100.300 L 287.400 100.192 268.887 100.096 C 254.375 100.021,250.333 100.108,250.183 100.500 M334.500 100.300 C 339.725 100.363,348.275 100.363,353.500 100.300 C 358.725 100.236,354.450 100.185,344.000 100.185 C 333.550 100.185,329.275 100.236,334.500 100.300 M100.400 118.800 L 100.400 137.200 118.800 137.200 L 137.200 137.200 137.200 118.800 L 137.200 100.400 118.800 100.400 L 100.400 100.400 100.400 118.800 M175.200 118.800 L 175.200 137.200 193.800 137.200 L 212.400 137.200 212.400 118.800 L 212.400 100.400 193.800 100.400 L 175.200 100.400 175.200 118.800 M137.600 156.200 L 137.600 174.800 156.200 174.800 L 174.800 174.800 174.800 156.200 L 174.800 137.600 156.200 137.600 L 137.600 137.600 137.600 156.200 M212.800 156.196 L 212.800 174.800 231.404 174.800 L 250.008 174.800 249.904 156.300 L 249.800 137.800 231.300 137.696 L 212.800 137.592 212.800 156.196 M287.696 156.300 L 287.792 175.000 287.900 156.504 L 288.008 138.008 306.504 137.900 L 325.000 137.792 306.300 137.696 L 287.600 137.600 287.696 156.300 M100.400 193.800 L 100.400 212.400 118.800 212.400 L 137.200 212.400 137.200 193.800 L 137.200 175.200 118.800 175.200 L 100.400 175.200 100.400 193.800 M175.200 193.800 L 175.200 212.400 193.800 212.400 L 212.400 212.400 212.400 193.800 L 212.400 175.200 193.800 175.200 L 175.200 175.200 175.200 193.800 M250.194 193.700 L 250.200 212.200 268.600 212.206 L 287.000 212.212 268.704 212.102 L 250.408 211.992 250.298 193.596 L 250.188 175.200 250.194 193.700 M334.500 212.300 C 339.725 212.363,348.275 212.363,353.500 212.300 C 358.725 212.236,354.450 212.185,344.000 212.185 C 333.550 212.185,329.275 212.236,334.500 212.300 M137.600 231.600 L 137.600 250.400 156.200 250.400 L 174.800 250.400 174.800 231.600 L 174.800 212.800 156.200 212.800 L 137.600 212.800 137.600 231.600 M212.800 231.404 L 212.800 250.008 231.300 249.904 L 249.800 249.800 249.904 231.300 L 250.008 212.800 231.404 212.800 L 212.800 212.800 212.800 231.404 M287.696 231.300 L 287.600 250.000 306.300 249.904 L 325.000 249.808 306.504 249.700 L 288.008 249.592 287.900 231.096 L 287.792 212.600 287.696 231.300 M250.183 250.500 C 250.078 250.775,250.038 259.280,250.096 269.400 L 250.200 287.800 268.800 287.806 L 287.400 287.812 268.900 287.702 L 250.400 287.592 250.400 269.000 L 250.400 250.408 268.900 250.300 L 287.400 250.192 268.887 250.096 C 254.375 250.021,250.333 250.108,250.183 250.500 M334.500 250.300 C 339.725 250.363,348.275 250.363,353.500 250.300 C 358.725 250.236,354.450 250.185,344.000 250.185 C 333.550 250.185,329.275 250.236,334.500 250.300 M334.500 287.900 C 339.725 287.963,348.275 287.963,353.500 287.900 C 358.725 287.836,354.450 287.785,344.000 287.785 C 333.550 287.785,329.275 287.836,334.500 287.900 " stroke="none" fill="#344c5c" fill-rule="evenodd"></path><path id="path5" d="M212.496 43.496 L 212.400 62.392 193.700 62.500 L 175.000 62.608 193.713 62.704 C 208.385 62.779,212.466 62.692,212.617 62.300 C 212.722 62.025,212.760 53.430,212.700 43.200 L 212.592 24.600 212.496 43.496 M62.585 43.800 C 62.585 54.140,62.636 58.427,62.700 53.328 C 62.763 48.228,62.763 39.768,62.700 34.528 C 62.637 29.287,62.585 33.460,62.585 43.800 M99.862 62.500 C 99.964 62.665,108.407 62.800,118.624 62.800 L 137.200 62.800 137.200 81.376 C 137.200 91.593,137.335 100.036,137.500 100.138 C 137.665 100.240,137.710 91.836,137.600 81.462 L 137.400 62.600 118.538 62.400 C 108.164 62.290,99.760 62.335,99.862 62.500 M250.194 81.100 L 250.200 99.800 268.800 99.806 L 287.400 99.812 268.904 99.702 L 250.408 99.592 250.298 80.996 L 250.188 62.400 250.194 81.100 M212.400 118.538 L 212.600 137.400 231.000 137.406 L 249.400 137.412 231.100 137.302 L 212.800 137.192 212.800 118.620 C 212.800 108.405,212.665 99.964,212.500 99.862 C 212.335 99.760,212.290 108.164,212.400 118.538 M334.500 99.900 C 339.725 99.963,348.275 99.963,353.500 99.900 C 358.725 99.836,354.450 99.785,344.000 99.785 C 333.550 99.785,329.275 99.836,334.500 99.900 M287.783 100.500 C 287.678 100.775,287.640 109.190,287.700 119.200 L 287.808 137.400 287.904 118.904 L 288.000 100.408 306.500 100.300 L 325.000 100.192 306.487 100.096 C 291.975 100.021,287.933 100.108,287.783 100.500 M62.594 118.900 L 62.600 137.400 81.462 137.600 C 91.836 137.710,100.240 137.665,100.138 137.500 C 100.036 137.335,91.595 137.200,81.380 137.200 L 62.808 137.200 62.698 118.800 L 62.588 100.400 62.594 118.900 M137.383 137.700 C 137.278 137.975,137.240 146.480,137.300 156.600 L 137.408 175.000 137.504 156.304 L 137.600 137.608 156.300 137.500 L 175.000 137.392 156.287 137.296 C 141.615 137.221,137.534 137.308,137.383 137.700 M250.096 156.300 L 250.192 175.000 250.300 156.504 L 250.408 138.008 268.904 137.900 L 287.400 137.792 268.700 137.696 L 250.000 137.600 250.096 156.300 M334.500 137.900 C 339.725 137.963,348.275 137.963,353.500 137.900 C 358.725 137.836,354.450 137.785,344.000 137.785 C 333.550 137.785,329.275 137.836,334.500 137.900 M62.585 193.800 C 62.585 204.140,62.636 208.427,62.700 203.328 C 62.763 198.228,62.763 189.768,62.700 184.528 C 62.637 179.287,62.585 183.460,62.585 193.800 M212.496 193.696 L 212.400 212.392 193.700 212.500 L 175.000 212.608 193.713 212.704 C 208.385 212.779,212.466 212.692,212.617 212.300 C 212.722 212.025,212.760 203.520,212.700 193.400 L 212.592 175.000 212.496 193.696 M287.696 193.700 L 287.600 212.400 306.300 212.304 L 325.000 212.208 306.504 212.100 L 288.008 211.992 287.900 193.496 L 287.792 175.000 287.696 193.700 M99.862 212.500 C 99.964 212.665,108.405 212.800,118.620 212.800 L 137.192 212.800 137.302 231.500 L 137.412 250.200 137.406 231.400 L 137.400 212.600 118.538 212.400 C 108.164 212.290,99.760 212.335,99.862 212.500 M250.194 231.300 L 250.200 249.800 268.600 249.806 L 287.000 249.812 268.704 249.702 L 250.408 249.592 250.298 231.196 L 250.188 212.800 250.194 231.300 M334.500 249.900 C 339.725 249.963,348.275 249.963,353.500 249.900 C 358.725 249.836,354.450 249.785,344.000 249.785 C 333.550 249.785,329.275 249.836,334.500 249.900 M287.783 250.500 C 287.678 250.775,287.640 259.280,287.700 269.400 L 287.808 287.800 287.904 269.104 L 288.000 250.408 306.500 250.300 L 325.000 250.192 306.487 250.096 C 291.975 250.021,287.933 250.108,287.783 250.500 M230.823 268.577 C 220.828 278.574,212.503 286.664,212.325 286.553 C 212.146 286.443,212.000 286.623,212.000 286.953 C 212.000 288.717,211.373 289.314,242.696 257.734 L 249.592 250.782 249.702 269.391 L 249.812 288.000 249.806 269.333 C 249.802 257.211,249.659 250.620,249.399 250.533 C 249.178 250.459,240.819 258.579,230.823 268.577 " stroke="none" fill="#acacac" fill-rule="evenodd"></path><path id="path6" d="" stroke="none" fill="#b0e0d0" fill-rule="evenodd"></path><path id="path7" d="M100.185 43.600 C 100.185 54.050,100.236 58.325,100.300 53.100 C 100.363 47.875,100.363 39.325,100.300 34.100 C 100.236 28.875,100.185 33.150,100.185 43.600 M99.696 81.096 L 99.600 99.592 81.100 99.700 L 62.600 99.808 81.113 99.904 C 95.625 99.979,99.667 99.892,99.817 99.500 C 99.922 99.225,99.960 90.810,99.900 80.800 L 99.792 62.600 99.696 81.096 M146.928 99.900 C 152.168 99.963,160.628 99.963,165.728 99.900 C 170.827 99.836,166.540 99.785,156.200 99.785 C 145.860 99.785,141.687 99.837,146.928 99.900 M219.200 99.888 C 236.062 100.167,250.307 100.173,250.138 99.900 C 250.036 99.735,241.548 99.640,231.276 99.690 C 221.004 99.739,215.570 99.828,219.200 99.888 M100.183 100.500 C 100.078 100.775,100.040 109.190,100.100 119.200 L 100.208 137.400 100.304 118.904 L 100.400 100.408 118.900 100.300 L 137.400 100.192 118.887 100.096 C 104.375 100.021,100.333 100.108,100.183 100.500 M184.528 100.300 C 189.768 100.363,198.228 100.363,203.328 100.300 C 208.427 100.236,204.140 100.185,193.800 100.185 C 183.460 100.185,179.287 100.237,184.528 100.300 M287.296 118.696 L 287.200 137.192 268.700 137.300 L 250.200 137.408 268.713 137.504 C 283.225 137.579,287.267 137.492,287.417 137.100 C 287.522 136.825,287.560 128.410,287.500 118.400 L 287.392 100.200 287.296 118.696 M334.500 137.500 C 339.725 137.563,348.275 137.563,353.500 137.500 C 358.725 137.436,354.450 137.385,344.000 137.385 C 333.550 137.385,329.275 137.436,334.500 137.500 M99.785 156.200 C 99.785 166.540,99.836 170.827,99.900 165.728 C 99.963 160.628,99.963 152.168,99.900 146.928 C 99.837 141.687,99.785 145.860,99.785 156.200 M100.185 193.800 C 100.185 204.140,100.236 208.427,100.300 203.328 C 100.363 198.228,100.363 189.768,100.300 184.528 C 100.237 179.287,100.185 183.460,100.185 193.800 M287.394 193.900 L 287.400 212.600 306.100 212.606 L 324.800 212.612 306.204 212.502 L 287.608 212.392 287.498 193.796 L 287.388 175.200 287.394 193.900 M99.785 231.600 C 99.785 242.050,99.836 246.325,99.900 241.100 C 99.963 235.875,99.963 227.325,99.900 222.100 C 99.836 216.875,99.785 221.150,99.785 231.600 M287.385 269.000 C 287.385 279.340,287.436 283.627,287.500 278.528 C 287.563 273.428,287.563 264.968,287.500 259.728 C 287.437 254.487,287.385 258.660,287.385 269.000 " stroke="none" fill="#5ca09c" fill-rule="evenodd"></path><path id="path8" d="" stroke="none" fill="#5c4ca8" fill-rule="evenodd"></path></g></svg>